# xmcd
#
# Track frame offsets:
#	150
#	11309
#	28291
#	48025
#	66505
#	80645
#	96548
#	113454
#
# Disc length: 1735 seconds
#
# Revision: 0
# Processed by: cddbd v1.5.2PL0 Copyright (c) Steve Scherf et al.
# Submitted via: EZCDAudioConverter 1.0.8.1
#
DISCID=6106c508
DTITLE=Pete Maradeo - 8 Hits
DYEAR=1982
DGENRE=Country
TTITLE0=Baby, You Say I'm Crazy
TTITLE1=Just a Friend of Mine
TTITLE2=Angel, Please Don't Go
TTITLE3=My New Love Come Along
TTITLE4=Gonna Shoot Ya Down
TTITLE5=I Hate to See You Go
TTITLE6=Been Doin' Some Heavy Thinkin'
TTITLE7=Victim of Love
EXTD=
EXTT0=
EXTT1=
EXTT2=
EXTT3=
EXTT4=
EXTT5=
EXTT6=
EXTT7=
PLAYORDER=
